<?xml version="1.0" encoding="UTF-8"?>
<svg width="114px" height="32px" viewBox="0 0 114 32" version="1.1" xmlns="http://www.w3.org/2000/svg" xmlns:xlink="http://www.w3.org/1999/xlink">
    <!-- Generator: Sketch 54 (76480) - https://sketchapp.com -->
    <title>画板复制 2</title>
    <desc>Created with Sketch.</desc>
    <g id="画板复制-2" stroke="none" stroke-width="1" fill="none" fill-rule="evenodd">
        <path d="M29.448054,22.3972811 C27.8300336,22.3972811 26.5179919,20.9570788 26.5179919,19.1804291 C26.5179919,17.4035438 27.8300336,15.9635771 29.448054,15.9635771 C31.0662886,15.9635771 32.3779015,17.4035438 32.3779015,19.1804291 C32.3779015,20.9570788 31.0662886,22.3972811 29.448054,22.3972811 Z M22.2983382,21.5490992 C20.9522037,21.5490992 19.8605868,20.3506964 19.8605868,18.8725879 C19.8605868,17.3942439 20.9522037,16.1958411 22.2983382,16.1958411 C23.6444729,16.1958411 24.7360898,17.3942439 24.7360898,18.8725879 C24.7360898,20.3506964 23.6444729,21.5490992 22.2983382,21.5490992 Z M36.8050503,23.2476526 C35.3336939,23.2476526 34.1410847,21.938121 34.1410847,20.3225139 C34.1410847,18.7073778 35.3336939,17.3978461 36.8050503,17.3978461 C38.2759778,17.3978461 39.4688014,18.7073778 39.4688014,20.3225139 C39.4688014,21.938121 38.2759778,23.2476526 36.8050503,23.2476526 Z M16.5717986,16.5885829 C16.5717986,18.2503367 15.3448821,19.5975392 13.8314992,19.5975392 C12.3181162,19.5975392 11.0909853,18.2503367 11.0909853,16.5885829 C11.0909853,14.9268291 12.3181162,13.5796266 13.8314992,13.5796266 C15.3448821,13.5796266 16.5717986,14.9268291 16.5717986,16.5885829 Z M47.197132,15.561394 C47.197132,16.6538475 46.3906949,17.5391117 45.3962106,17.5391117 C44.4012976,17.5391117 43.5950749,16.6538475 43.5950749,15.561394 C43.5950749,14.4694113 44.4012976,13.5841472 45.3962106,13.5841472 C46.3906949,13.5841472 47.197132,14.4694113 47.197132,15.561394 Z M40.8213472,17.5476111 C39.800918,17.5476111 38.9736821,16.6390383 38.9736821,15.518567 C38.9736821,14.3976248 39.800918,13.4892874 40.8213472,13.4892874 C41.8422052,13.4892874 42.6694412,14.3976248 42.6694412,15.518567 C42.6694412,16.6390383 41.8422052,17.5476111 40.8213472,17.5476111 Z M9.08685726,11.0424738 C10.067833,11.0424738 10.8633346,11.9157304 10.8633346,12.9928802 C10.8633346,14.0702655 10.067833,14.943522 9.08685726,14.943522 C8.1056671,14.943522 7.31059431,14.0702655 7.31059431,12.9928802 C7.31059431,11.9157304 8.1056671,11.0424738 9.08685726,11.0424738 Z M25.3129035,21.3466421 C26.1403539,21.3466421 26.8110625,22.0833419 26.8110625,22.9921504 C26.8110625,23.9007232 26.1403539,24.6374231 25.3129035,24.6374231 C24.4852387,24.6374231 23.8143157,23.9007232 23.8143157,22.9921504 C23.8143157,22.0833419 24.4852387,21.3466421 25.3129035,21.3466421 Z M32.7985739,22.1954126 C33.6054398,22.1954126 34.259638,22.9139834 34.259638,23.7997184 C34.259638,24.6856888 33.6054398,25.4037887 32.7985739,25.4037887 C31.9914935,25.4037887 31.3375097,24.6856888 31.3375097,23.7997184 C31.3375097,22.9139834 31.9914935,22.1954126 32.7985739,22.1954126 Z M48.511082,9.34540373 C49.2570524,9.34540373 49.8619338,10.0093518 49.8619338,10.828692 C49.8619338,11.6477967 49.2570524,12.3122157 48.511082,12.3122157 C47.7651116,12.3122157 47.1602301,11.6477967 47.1602301,10.828692 C47.1602301,10.0093518 47.7651116,9.34540373 48.511082,9.34540373 Z M17.3860192,19.4154007 C18.3530576,19.4154007 19.1371949,20.2761789 19.1371949,21.3380249 C19.1371949,22.3998709 18.3530576,23.2608844 17.3860192,23.2608844 C16.4191953,23.2608844 15.6350579,22.3998709 15.6350579,21.3380249 C15.6350579,20.2761789 16.4191953,19.4154007 17.3860192,19.4154007 Z M5.24915153,8.87129295 C5.24915153,9.52700055 4.76477466,10.0586299 4.16718354,10.0586299 C3.57002126,10.0586299 3.08585881,9.52700055 3.08585881,8.87129295 C3.08585881,8.21511451 3.57002126,7.68324965 4.16718354,7.68324965 C4.76477466,7.68324965 5.24915153,8.21511451 5.24915153,8.87129295 Z M51.0290698,7.49795635 C51.6264465,7.49795635 52.110609,8.02982111 52.110609,8.6855288 C52.110609,9.34170725 51.6264465,9.87333663 51.0290698,9.87333663 C50.4319075,9.87333663 49.9475307,9.34170725 49.9475307,8.6855288 C49.9475307,8.02982111 50.4319075,7.49795635 51.0290698,7.49795635 Z M18.6212553,17.3088253 C17.9683435,17.3088253 17.4389383,16.7275176 17.4389383,16.010124 C17.4389383,15.2934368 17.9683435,14.712129 18.6212553,14.712129 C19.2743814,14.712129 19.8037866,15.2934368 19.8037866,16.010124 C19.8037866,16.7275176 19.2743814,17.3088253 18.6212553,17.3088253 Z M5.73998247,11.1720379 C6.2250026,11.1720379 6.61803616,11.6038396 6.61803616,12.1368816 C6.61803616,12.6689819 6.2250026,13.101019 5.73998247,13.101019 C5.25474792,13.101019 4.86192878,12.6689819 4.86192878,12.1368816 C4.86192878,11.6038396 5.25474792,11.1720379 5.73998247,11.1720379 Z M9.31435786,15.761426 C9.79959241,15.761426 10.1928404,16.1932277 10.1928404,16.7260343 C10.1928404,17.25837 9.79959241,17.6904072 9.31435786,17.6904072 C8.82933773,17.6904072 8.43608975,17.25837 8.43608975,16.7260343 C8.43608975,16.1932277 8.82933773,15.761426 9.31435786,15.761426 Z M21.4539486,23.6396881 C21.4539486,24.3076387 20.9607805,24.8489212 20.3524684,24.8489212 C19.7441562,24.8489212 19.2512025,24.3076387 19.2512025,23.6396881 C19.2512025,22.9717375 19.7441562,22.4304549 20.3524684,22.4304549 C20.9607805,22.4304549 21.4539486,22.9717375 21.4539486,23.6396881 Z M28.608789,23.3691645 L28.6516731,23.3691645 C29.3035128,23.381643 29.8284152,23.9660115 29.8284152,24.6843468 C29.8284152,25.4109226 29.2919341,26 28.6302311,26 C27.9685281,26 27.4320469,25.4109226 27.4320469,24.6843468 C27.4320469,23.9660115 27.9569493,23.381643 28.608789,23.3691645 Z M33.6779356,17.6102625 C33.0863482,17.6102625 32.6066886,17.0838128 32.6066886,16.4342267 C32.6066886,15.7844053 33.0863482,15.258191 33.6779356,15.258191 C34.2697373,15.258191 34.7493969,15.7844053 34.7493969,16.4342267 C34.7493969,17.0838128 34.2697373,17.6102625 33.6779356,17.6102625 Z M3.27088263,6.77229872 C3.27259799,7.15771823 2.98956237,7.47156323 2.63855532,7.47344682 C2.28754826,7.4753303 2.00193959,7.16454615 2.0000098,6.77912664 C1.99808001,6.39370712 2.28133006,6.07986212 2.63233711,6.07797854 L2.63555343,6.07797854 C2.98505953,6.07797854 3.26916726,6.38805647 3.27088263,6.77229872 Z M52.5653957,6 C52.9084692,6 53.1876453,6.30442728 53.1891463,6.68184171 C53.1908616,7.05972708 52.9129721,7.3681569 52.5686121,7.36956954 C52.224252,7.37145303 51.9435751,7.06631943 51.9418597,6.68843415 C51.9403588,6.31007793 52.2180338,6.00235443 52.5623938,6.00023547 C52.563466,6 52.5641092,6 52.5653957,6 Z M45.7839265,12.7636769 C45.3619462,12.7662667 45.0182295,12.3921485 45.0160852,11.9287975 C45.013941,11.465211 45.3544414,11.088032 45.7764218,11.0856775 L45.780067,11.0856775 L45.7807102,11.0856775 C46.2007608,11.0856775 46.5423334,11.4586186 46.5444776,11.9205569 C46.5464074,12.3839079 46.205907,12.7615578 45.7839265,12.7636769 Z M6.45308214,9.14513626 C6.81352372,9.14513626 7.10685155,9.46510266 7.10856692,9.86158801 C7.11028228,10.259486 6.81866982,10.5829841 6.45608403,10.585103 C6.09414152,10.5869866 5.79931274,10.2660783 5.79738295,9.8686513 C5.79588201,9.47122416 6.08770888,9.14701975 6.44986583,9.14513626 L6.45308214,9.14513626 Z M22.7361858,23.9129427 L22.7372579,23.9129427 C23.1566652,23.9129427 23.4975945,24.2861192 23.4978089,24.7466449 C23.4984522,25.2083478 23.1581662,25.5827015 22.7381156,25.5834078 C22.3184938,25.5838788 21.9771358,25.2109377 21.9764924,24.7492348 C21.9758492,24.2880028 22.3161352,23.913649 22.7361858,23.9129427 Z M25.620619,17.2108812 C25.2258701,17.2115875 24.9053107,16.8605427 24.9046675,16.4270928 C24.9044531,15.9934076 25.2237258,15.6414209 25.6186891,15.6409501 L25.6197613,15.6409501 C26.0142958,15.6409501 26.3344262,15.9912886 26.3346406,16.4247384 C26.3350695,16.8584236 26.0155823,17.2104103 25.620619,17.2108812 Z M37.2169315,16.4376407 C36.7415602,16.4444685 36.3510998,16.0265579 36.345096,15.5043462 C36.3390922,14.9826055 36.7196893,14.5538646 37.1950605,14.5470367 L37.205996,14.5470367 C37.6764355,14.5470367 38.0608923,14.9623574 38.066896,15.4805666 C38.0728998,16.0023073 37.6925171,16.4310482 37.2169315,16.4376407 Z M44.6424996,18.8178239 C44.6476458,19.2656357 44.3210827,19.6338679 43.9128253,19.6392831 C43.5047822,19.6449337 43.1698568,19.2861193 43.1644962,18.8383074 C43.1593501,18.3897893 43.4859132,18.022028 43.8937418,18.0166128 C43.8971725,18.0166128 43.9003888,18.0163774 43.9036052,18.0163774 C44.3075742,18.0163774 44.6373536,18.3730729 44.6424996,18.8178239 Z M43.8920265,12.8922049 C43.8971725,13.3404877 43.5706095,13.708249 43.162352,13.7138996 C42.754309,13.7195502 42.4191691,13.3612066 42.414023,12.9129239 C42.4088768,12.4648766 42.7356544,12.0966444 43.1432686,12.0912293 L43.1531319,12.0912293 C43.5571009,12.0912293 43.8870947,12.4474539 43.8920265,12.8922049 Z M48.320955,13.0720125 C48.7247095,13.0720125 49.054489,13.4284725 49.0596351,13.8732235 C49.0649955,14.3212708 48.7384325,14.6892676 48.3301751,14.6949182 C47.922132,14.7008043 47.5869921,14.3419897 47.581846,13.8939425 C47.5766999,13.4458953 47.903263,13.077663 48.3110916,13.0720125 L48.320955,13.0720125 Z M40.4313584,19.8537477 C40.4313584,19.1756731 40.9320313,18.6259147 41.5495635,18.6259147 C42.1670958,18.6259147 42.6679831,19.1756731 42.6679831,19.8537477 C42.6679831,20.5318224 42.1670958,21.0815809 41.5495635,21.0815809 C40.9320313,21.0815809 40.4313584,20.5318224 40.4313584,19.8537477 Z M80.835685,14.0130382 C81.0464004,14.4113952 81.1862502,14.8468958 81.2546073,15.3188586 C81.3229643,15.7921844 81.3571429,16.2501756 81.3571429,16.6965808 L81.3571429,23.5 L81.355575,23.5 L78.3757715,23.5 L78.3757715,17.5263491 C78.3757715,16.82505 78.254422,16.3149214 78.0123502,15.9976671 C77.7702784,15.6804127 77.450129,15.5216151 77.0528428,15.5216151 C76.8415003,15.5216151 76.6307849,15.568641 76.4194424,15.6633743 C76.2077864,15.7581076 76.0030287,15.8899846 75.8039153,16.0586644 C75.6057425,16.2273442 75.4285786,16.4266931 75.2733641,16.6556887 C75.1178361,16.8853658 74.9968003,17.1351483 74.9099429,17.4053768 L74.9099429,23.5 L71.9285714,23.5 L71.9285714,23.4942069 L71.9285714,12.8687416 L74.611743,12.8687416 L74.611743,14.6509547 C74.971715,14.016446 75.4809438,13.5267633 76.1397429,13.1822476 C76.7979148,12.8387541 77.5558002,12.6666667 78.4130857,12.6666667 C79.0467995,12.6666667 79.5557147,12.7910467 79.9410855,13.0404884 C80.3258292,13.2909524 80.624029,13.6143405 80.835685,14.0130382 Z M93.8295061,17.7090286 C94.0620223,17.0133767 94.1785975,16.3048115 94.1785975,15.5833334 C94.1785975,14.8224536 94.0566222,14.0913733 93.8104477,13.3897614 C93.5649079,12.6881495 93.222169,12.0683206 92.781278,11.5299436 C92.3410224,10.9925598 91.819132,10.5627853 91.2149715,10.2416133 C90.6111287,9.92044129 89.9440746,9.75985526 89.2141269,9.75985526 C88.4590852,9.75985526 87.7729724,9.92673224 87.1567415,10.2604863 C86.5401929,10.5958959 86.0176672,11.0382524 85.5901172,11.5892114 C85.1622497,12.1401704 84.8318992,12.7636415 84.5993831,13.4583002 C84.3662318,14.1539522 84.2499739,14.8621862 84.2499739,15.5833334 C84.2499739,16.3448752 84.3694083,17.0756244 84.6085948,17.7769052 C84.8474637,18.4788482 85.1873436,19.1023193 85.627917,19.6466562 C86.0681727,20.1913243 86.5903808,20.6240788 87.1945412,20.9452507 C87.798384,21.2667539 88.4714734,21.4273399 89.2141269,21.4273399 C89.9694863,21.4273399 90.6549637,21.2568207 91.27183,20.9154513 C91.8880609,20.574413 92.4102689,20.1287453 92.8387718,19.5774552 C93.266004,19.0268273 93.5963547,18.4040185 93.8295061,17.7090286 Z M93.7729652,10.7432376 C94.3202674,11.4124013 94.7449582,12.1696388 95.0470383,13.0159437 C95.3491185,13.8615863 95.5,14.7241153 95.5,15.6031997 C95.5,16.5345986 95.3399069,17.4265959 95.0184503,18.2791917 C94.6976288,19.1317876 94.2570559,19.8827342 93.6973658,20.5320315 C93.1370403,21.1813287 92.4734803,21.6995084 91.7060504,22.0862392 C90.9383029,22.4733012 90.1079794,22.6666666 89.2141269,22.6666666 C88.2831099,22.6666666 87.4302336,22.466348 86.6567685,22.066704 C85.8829858,21.666729 85.2187905,21.1353052 84.6651356,20.4727636 C84.111163,19.8112155 83.6836132,19.0533157 83.3815329,18.2003887 C83.0794527,17.3474618 82.9285714,16.4756618 82.9285714,15.5833334 C82.9285714,14.6525966 83.0889821,13.7605993 83.4101209,12.9076723 C83.7303069,12.0544142 84.1740567,11.3008188 84.7404174,10.6448994 C85.3067781,9.98931118 85.9738322,9.46748937 86.7409444,9.08075852 C87.5090096,8.69369654 88.3393331,8.50000002 89.2331856,8.50000002 C90.1645201,8.50000002 91.0173965,8.70694073 91.7908616,9.11982893 C92.5643267,9.5333793 93.2256632,10.0740741 93.7729652,10.7432376 Z M104.468479,17.0845625 C104.871038,17.3791641 105.179551,17.7365876 105.393382,18.155841 C105.607847,18.5754251 105.714286,19.0988307 105.714286,19.7273802 C105.714286,20.3698167 105.59482,20.9259557 105.35589,21.3974505 C105.116641,21.869276 104.783028,22.2624087 104.35505,22.5765182 C103.927072,22.8909583 103.41712,23.1237299 102.825512,23.2741718 C102.233905,23.4242831 101.58606,23.5 100.880706,23.5 C98.8043606,23.5 97.0104742,22.8248299 95.5,21.4764739 L96.1605546,20.3562604 C96.3998028,20.6184591 96.6857569,20.8664402 97.0200057,21.1028489 C97.3533011,21.3385964 97.7247243,21.5452473 98.1339564,21.7218099 C98.5425533,21.8987031 98.9800636,22.0359194 99.4461684,22.1341198 C99.9116389,22.232651 100.402527,22.2819166 100.918833,22.2819166 C101.98862,22.2819166 102.822653,22.0822091 103.420615,21.6821329 C104.017942,21.2833792 104.317241,20.6769826 104.317241,19.8655884 C104.317241,19.4327786 104.23209,19.0694036 104.062423,18.7744714 C103.892439,18.4798698 103.637622,18.2242838 103.297972,18.0080443 C102.958005,17.7921354 102.536381,17.6053229 102.032784,17.4482682 C101.529504,17.2912135 100.943616,17.1334975 100.277025,16.9767734 C99.571353,16.8068237 98.9552806,16.6299304 98.426583,16.4460938 C97.8982026,16.2629183 97.4511608,16.0334531 97.0860928,15.7583594 C96.7207067,15.4835963 96.447144,15.1529548 96.2644514,14.7661042 C96.082076,14.3799148 95.9908878,13.9051137 95.9908878,13.3417005 C95.9908878,12.7002559 96.1071762,12.1265929 96.3397519,11.622034 C96.5729638,11.1178056 96.9034002,10.6985521 97.3313781,10.3652655 C97.7587208,10.0309869 98.2629534,9.77573165 98.8418523,9.59883844 C99.4207502,9.42161458 100.062877,9.3333333 100.767913,9.3333333 C101.661361,9.3333333 102.457584,9.47451727 103.156266,9.75589316 C103.854947,10.0375998 104.487225,10.4337083 105.053731,10.9448801 L104.41224,12.0449245 C104.034781,11.599881 103.530548,11.2394817 102.901449,10.9640573 C102.271715,10.6892943 101.554604,10.5514167 100.748849,10.5514167 C99.5656339,10.5514167 98.7030057,10.7848496 98.1615985,11.2487397 C97.6208275,11.714283 97.3501239,12.3468001 97.3501239,13.1452995 C97.3501239,13.5642223 97.4225653,13.90842 97.5674491,14.1769009 C97.7120148,14.4450512 97.9353771,14.6778229 98.2378533,14.8738933 C98.5400113,15.070625 98.9270023,15.2412361 99.3988272,15.3853957 C99.8712873,15.5292248 100.427945,15.6730539 101.069753,15.8168829 C101.787181,15.9745989 102.432484,16.1514922 103.005346,16.3475625 C103.577572,16.5446249 104.065601,16.7899609 104.468479,17.0845625 Z M106.5,9.3333333 L106.500659,9.3333333 L108.857143,9.3333333 L108.857143,9.33362438 L108.857143,9.75921826 L107.951412,9.75921826 L107.951412,11.8333333 L107.405402,11.8333333 L107.405402,9.75921826 L106.5,9.75921826 L106.5,9.3333333 Z M110.819662,10.7556668 L111.516776,9.3333333 L112,9.3333333 L112,11.8333333 L111.546672,11.8333333 L111.546672,10.1781167 L110.944952,11.4109417 L110.698449,11.4109417 L110.096729,10.1781167 L110.096729,11.8333333 L109.642857,11.8333333 L109.642857,9.3333333 L109.643129,9.3333333 L110.129343,9.3333333 L110.819662,10.7556668 Z M60.9285714,22.6666666 L60.9285714,8.50000002 L70.3571429,8.50000002 L70.3571429,8.50033573 L70.3571429,11.3728876 L64.0843808,11.3728876 L64.0843808,14.1269109 L68.8401136,14.1269109 L68.8401136,16.7805377 L64.0843808,16.7805377 L64.0843808,19.7934433 L70.3571429,19.7934433 L70.3571429,22.6666666 L60.9285714,22.6666666 Z" id="合并形状-copy" fill="#0A6EFA" fill-rule="nonzero"></path>
    </g>
</svg>